# File created by Blade
# Date/Time:  Tue Jan 27 17:09:01 2015
#---------------------------------------------------------
:version 1.10
:name HOM
:units
  mass 1.0
  length 1.000000
  angle deg
:documentation
     Acclaim Skeleton File
:root
   axis xyz
   order TX TY TZ RX RY RZ
   position 0.000000 0.000000 0.000000
   orientation 0 0 0
:bonedata
   begin
      id 1
      name Spine_dum
      direction 0.000000 1.000000 0.000000
      length 7.539951
      axis 0.0 0.0 0.0 xyz
   end
   begin
      id 2
      name LeftUpLeg_dum
      direction 1.000000 0.000000 0.000000
      length 3.345476
      axis 0.0 0.0 0.0 xyz
   end
   begin
      id 3
      name RightUpLeg_dum
      direction -1.000000 0.000000 0.000000
      length 3.345476
      axis 0.0 0.0 0.0 xyz
   end
   begin
      id 4
      name Spine
      direction 0.000000 1.000000 0.000000
      length 0.000000
      axis 0.0 0.0 0.0 xyz
      dof rx ry rz
   end
   begin
      id 5
      name Spine_dum1
      direction 0.000000 1.000000 0.000000
      length 15.093809
      axis 0.0 0.0 0.0 xyz
   end
   begin
      id 6
      name Spine_dum2
      direction 0.000000 1.000000 0.000000
      length 9.738928
      axis 0.0 0.0 0.0 xyz
   end
   begin
      id 7
      name Spine_dum3
      direction 0.000000 1.000000 0.000000
      length 9.738928
      axis 0.0 0.0 0.0 xyz
   end
   begin
      id 8
      name Head
      direction 0.000000 1.000000 0.000000
      length 4.527550
      axis 0.0 0.0 0.0 xyz
      dof rx ry rz
   end
   begin
      id 9
      name LeftShoulder
      direction 1.000000 0.000000 0.000000
      length 7.084015
      axis 0.0 0.0 -90.0 xyz
      dof rx ry rz
   end
   begin
      id 10
      name LeftArm
      direction 1.000000 0.000000 0.000000
      length 10.259319
      axis 0.0 0.0 -90.0 xyz
      dof rx ry rz
   end
   begin
      id 11
      name LeftForeArm
      direction 1.000000 0.000000 0.000000
      length 9.896984
      axis 0.0 0.0 -90.0 xyz
      dof ry rz rx
   end
   begin
      id 12
      name LeftHand
      direction 0.000000 0.000000 0.000000
      length 0.000000
      axis 0.0 0.0 -90.0 xyz
      dof rx ry rz
   end
   begin
      id 13
      name LeftHand_dum1
      direction 0.000000 0.000000 0.000000
      length 0.000000
      axis 0.0 0.0 -90.0 xyz
   end
   begin
      id 14
      name LeftHand_dum2
      direction 1.000000 0.000000 0.000000
      length 3.937000
      axis 0.0 0.0 -90.0 xyz
   end
   begin
      id 15
      name LeftHandThumb1
      direction 0.000000 0.000000 1.000000
      length 3.937000
      axis 0.0 0.0 -90.0 xyz
      dof rx rz ry
   end
   begin
      id 16
      name RightShoulder
      direction -1.000000 0.000000 0.000000
      length 7.084015
      axis 0.0 0.0 90.0 xyz
      dof rx ry rz
   end
   begin
      id 17
      name RightArm
      direction -1.000000 0.000000 0.000000
      length 10.259319
      axis 0.0 0.0 90.0 xyz
      dof rx ry rz
   end
   begin
      id 18
      name RightForeArm
      direction -1.000000 0.000000 0.000000
      length 9.896984
      axis 0.0 0.0 90.0 xyz
      dof ry rz rx
   end
   begin
      id 19
      name RightHand
      direction 0.000000 0.000000 0.000000
      length 0.000000
      axis 0.0 0.0 90.0 xyz
      dof rx ry rz
   end
   begin
      id 20
      name RightHand_dum1
      direction 0.000000 0.000000 0.000000
      length 0.000000
      axis 0.0 0.0 90.0 xyz
   end
   begin
      id 21
      name RightHand_dum2
      direction -1.000000 0.000000 0.000000
      length 3.937000
      axis 0.0 0.0 90.0 xyz
   end
   begin
      id 22
      name RightHandThumb1
      direction 0.000000 0.000000 1.000000
      length 3.937000
      axis 0.0 0.0 90.0 xyz
      dof rx rz ry
   end
   begin
      id 23
      name LeftUpLeg
      direction 0.000000 -1.000000 0.000000
      length 19.114733
      axis 0.0 0.0 0.0 xyz
      dof rx ry rz
   end
   begin
      id 24
      name LeftLeg
      direction 0.000000 -1.000000 0.000000
      length 16.045604
      axis 0.0 0.0 0.0 xyz
      dof rx ry rz
   end
   begin
      id 25
      name LeftFoot
      direction 0.000000 -0.258819 0.965926
      length 5.543155
      axis 15.0 0.0 0.0 xyz
      dof rx ry rz
   end
   begin
      id 26
      name LeftToeBase
      direction 0.000000 0.000000 1.000000
      length 2.952750
      axis 0.0 0.0 0.0 xyz
      dof rx ry rz
   end
   begin
      id 27
      name RightUpLeg
      direction 0.000000 -1.000000 0.000000
      length 19.114733
      axis 0.0 0.0 0.0 xyz
      dof rx ry rz
   end
   begin
      id 28
      name RightLeg
      direction 0.000000 -1.000000 0.000000
      length 16.045604
      axis 0.0 0.0 0.0 xyz
      dof rx ry rz
   end
   begin
      id 29
      name RightFoot
      direction 0.000000 -0.258819 0.965926
      length 5.543155
      axis 15.0 0.0 0.0 xyz
      dof rx ry rz
   end
   begin
      id 30
      name RightToeBase
      direction 0.000000 0.000000 1.000000
      length 2.952750
      axis 0.0 0.0 0.0 xyz
      dof rx ry rz
   end
:hierarchy
   begin
      root Spine_dum LeftUpLeg_dum RightUpLeg_dum
      Spine_dum Spine
      LeftUpLeg_dum LeftUpLeg
      RightUpLeg_dum RightUpLeg
      Spine Spine_dum1 Spine_dum2 Spine_dum3
      Spine_dum1 Head
      Spine_dum2 LeftShoulder
      Spine_dum3 RightShoulder
      LeftShoulder LeftArm
      LeftArm LeftForeArm
      LeftForeArm LeftHand
      LeftHand LeftHand_dum1 LeftHand_dum2
      LeftHand_dum1 LeftHandThumb1
      RightShoulder RightArm
      RightArm RightForeArm
      RightForeArm RightHand
      RightHand RightHand_dum1 RightHand_dum2
      RightHand_dum1 RightHandThumb1
      LeftUpLeg LeftLeg
      LeftLeg LeftFoot
      LeftFoot LeftToeBase
      RightUpLeg RightLeg
      RightLeg RightFoot
      RightFoot RightToeBase
   end

# File created by Blade
# Date/Time:  Tue Jan 27 17:08:52 2015
# Frame Rate: 120.000 fps
#------------------------------------------------------
:FULLY-SPECIFIED
:DEGREES
270
root 5.360902 37.161867 -1.957521 1.102025 6.274988 -9.366280
Spine 3.325740 4.826483 11.546990
Head -1.158395 -7.603020 2.564193
LeftShoulder -6.753131 -4.735886 5.620422
LeftArm -8.802704 -16.331638 -52.299083
LeftForeArm 10.043221 -0.000000 110.450403
LeftHand -12.168270 -0.000000 25.397023
LeftHandThumb1 -26.253704 0.000000 33.147579
RightShoulder -4.183757 -18.307559 -1.137461
RightArm 22.806574 -8.599743 62.211817
RightForeArm 193.021192 -0.000000 28.894135
RightHand 3.104510 -0.000000 8.547409
RightHandThumb1 -24.326973 -0.000000 -32.862282
LeftUpLeg -7.812272 11.928115 3.796713
LeftLeg 19.037486 -0.000000 -0.000000
LeftFoot -23.108412 8.649646 -9.407501
LeftToeBase 11.545105 -0.000000 -0.000000
RightUpLeg -65.319922 -13.881334 4.255126
RightLeg 104.883363 -0.000000 -0.000000
RightFoot -4.092388 -2.313070 10.274516
RightToeBase 2.852143 -0.000000 -0.000000
271
root 5.371291 37.159972 -1.951508 1.088334 6.313565 -9.409575
Spine 3.317679 4.939025 11.593285
Head -1.188037 -7.625219 2.537151
LeftShoulder -6.776265 -4.698973 5.580749
LeftArm -8.703357 -16.225534 -52.211503
LeftForeArm 9.976921 -0.000000 110.553940
LeftHand -12.160319 -0.000000 25.309372
LeftHandThumb1 -26.253704 0.000000 33.147579
RightShoulder -4.147422 -18.291029 -1.191017
RightArm 22.839019 -8.570036 62.204307
RightForeArm 193.060046 -0.000000 28.871101
RightHand 3.066958 -0.000000 8.504695
RightHandThumb1 -24.326973 -0.000000 -32.862282
LeftUpLeg -7.848786 11.865635 3.826128
LeftLeg 19.143119 -0.000000 -0.000000
LeftFoot -23.143337 8.678584 -9.332543
LeftToeBase 11.513559 -0.000000 -0.000000
RightUpLeg -65.397845 -13.913237 4.425387
RightLeg 104.976660 -0.000000 -0.000000
RightFoot -4.032107 -2.310968 10.399615
RightToeBase 2.676270 -0.000000 -0.000000
272
root 5.378706 37.159148 -1.946940 1.060554 6.348631 -9.482527
Spine 3.326176 5.042629 11.671823
Head -1.195378 -7.637577 2.501590
LeftShoulder -6.749266 -4.715204 5.552325
LeftArm -8.724888 -16.151162 -52.099555
LeftForeArm 9.830816 -0.000000 110.689037
LeftHand -12.125331 0.000000 25.089448
LeftHandThumb1 -26.253704 0.000000 33.147579
RightShoulder -4.080364 -18.260016 -1.261357
RightArm 22.880309 -8.532096 62.196297
RightForeArm 193.020275 0.000000 28.797470
RightHand 3.001966 0.000000 8.480665
RightHandThumb1 -24.326973 -0.000000 -32.862282
LeftUpLeg -7.884247 11.842757 3.892852
LeftLeg 19.268114 -0.000000 -0.000000
LeftFoot -23.193140 8.670150 -9.276339
LeftToeBase 11.430867 -0.000000 -0.000000
RightUpLeg -65.465876 -13.947008 4.636502
RightLeg 105.055001 -0.000000 -0.000000
RightFoot -3.991067 -2.248166 10.350614
RightToeBase 2.562150 -0.000000 -0.000000
273
root 5.385338 37.157596 -1.942184 1.017259 6.403136 -9.553804
Spine 3.367483 5.104983 11.771781
Head -1.263440 -7.612086 2.421687
LeftShoulder -6.770672 -4.677998 5.489863
LeftArm -8.645512 -16.078064 -51.976686
LeftForeArm 9.689853 0.000000 110.790903
LeftHand -12.140567 -0.000000 24.976736
LeftHandThumb1 -26.253704 0.000000 33.147579
RightShoulder -4.022534 -18.193878 -1.360837
RightArm 22.919666 -8.503194 62.215980
RightForeArm 192.952112 -0.000000 28.756501
RightHand 3.009800 0.000000 8.533400
RightHandThumb1 -24.326973 -0.000000 -32.862282
LeftUpLeg -7.925954 11.834229 3.963043
LeftLeg 19.435976 -0.000000 -0.000000
LeftFoot -23.243205 8.603562 -9.250140
LeftToeBase 11.394282 -0.000000 -0.000000
RightUpLeg -65.543497 -13.997911 4.866640
RightLeg 105.153993 -0.000000 -0.000000
RightFoot -3.903430 -2.181854 10.353921
RightToeBase 2.554486 -0.000000 -0.000000
274
root 5.390647 37.156475 -1.938017 0.961638 6.462416 -9.656323
Spine 3.418156 5.184779 11.907135
Head -1.308174 -7.615194 2.348532
LeftShoulder -6.750173 -4.753842 5.438698
LeftArm -8.681123 -15.959203 -51.825983
LeftForeArm 9.508997 -0.000000 110.911046
LeftHand -12.087441 -0.000000 24.780615
LeftHandThumb1 -26.253704 0.000000 33.147579
RightShoulder -3.980569 -18.125415 -1.438196
RightArm 22.947693 -8.446937 62.204177
RightForeArm 192.881768 0.000000 28.711493
RightHand 3.110840 -0.000000 8.515094
RightHandThumb1 -24.326973 -0.000000 -32.862282
LeftUpLeg -7.974438 11.833290 4.062557
LeftLeg 19.621303 -0.000000 -0.000000
LeftFoot -23.244068 8.528845 -9.069725
LeftToeBase 11.488789 -0.000000 -0.000000
RightUpLeg -65.600198 -14.024866 5.101227
RightLeg 105.231060 -0.000000 -0.000000
RightFoot -3.854862 -2.072591 10.488153
RightToeBase 2.461407 -0.000000 -0.000000
275
root 5.396310 37.156344 -1.933487 0.876097 6.526645 -9.769636
Spine 3.497299 5.250188 12.059486
Head -1.339481 -7.606076 2.304031
LeftShoulder -6.754872 -4.744001 5.392236
LeftArm -8.585784 -15.861876 -51.742589
LeftForeArm 9.379453 0.000000 111.006407
LeftHand -12.059663 -0.000000 24.605734
LeftHandThumb1 -26.253704 0.000000 33.147579
RightShoulder -3.907216 -18.075657 -1.523002
RightArm 22.980159 -8.382814 62.170259
RightForeArm 192.899123 -0.000000 28.661399
RightHand 3.059167 -0.000000 8.418800
RightHandThumb1 -24.326973 -0.000000 -32.862282
LeftUpLeg -7.991714 11.782852 4.184521
LeftLeg 19.813845 -0.000000 -0.000000
LeftFoot -23.304389 8.511834 -8.994708
LeftToeBase 11.455385 -0.000000 -0.000000
RightUpLeg -65.673550 -14.083769 5.385815
RightLeg 105.330998 -0.000000 -0.000000
RightFoot -3.772357 -2.011757 10.519201
RightToeBase 2.453658 -0.000000 -0.000000
276
root 5.398372 37.156904 -1.929836 0.788926 6.598000 -9.904564
Spine 3.583795 5.279849 12.245022
Head -1.361187 -7.564318 2.209929
LeftShoulder -6.775577 -4.739195 5.339457
LeftArm -8.495103 -15.779402 -51.667996
LeftForeArm 9.244138 -0.000000 111.098173
LeftHand -12.066218 -0.000000 24.476740
LeftHandThumb1 -26.253704 0.000000 33.147579
RightShoulder -3.799394 -18.023619 -1.627817
RightArm 22.988712 -8.269083 62.166572
RightForeArm 192.834167 -0.000000 28.670710
RightHand 3.066335 -0.000000 8.419863
RightHandThumb1 -24.326973 -0.000000 -32.862282
LeftUpLeg -8.020831 11.687923 4.333354
LeftLeg 20.018816 -0.000000 -0.000000
LeftFoot -23.365985 8.501935 -9.006303
LeftToeBase 11.334635 -0.000000 -0.000000
RightUpLeg -65.733464 -14.122950 5.673291
RightLeg 105.420224 -0.000000 -0.000000
RightFoot -3.723923 -1.819582 10.629927
RightToeBase 2.528845 -0.000000 -0.000000
277
root 5.400096 37.157065 -1.925973 0.681151 6.658573 -10.046933
Spine 3.694002 5.336201 12.440962
Head -1.378814 -7.529155 2.120638
LeftShoulder -6.790562 -4.696588 5.295606
LeftArm -8.347593 -15.703309 -51.618561
LeftForeArm 9.029299 -0.000000 111.183137
LeftHand -12.026926 -0.000000 24.274804
LeftHandThumb1 -26.253704 0.000000 33.147579
RightShoulder -3.683267 -18.001406 -1.739367
RightArm 23.001909 -8.072757 62.203798
RightForeArm 192.698865 -0.000000 28.654834
RightHand 3.073161 -0.000000 8.466396
RightHandThumb1 -24.326973 -0.000000 -32.862282
LeftUpLeg -8.049341 11.625271 4.495031
LeftLeg 20.280174 -0.000000 -0.000000
LeftFoot -23.508067 8.505744 -9.090902
LeftToeBase 11.112462 -0.000000 -0.000000
RightUpLeg -65.819927 -14.161590 5.995774
RightLeg 105.542271 -0.000000 -0.000000
RightFoot -3.650123 -1.737038 10.538036
RightToeBase 2.297040 -0.000000 -0.000000
278
root 5.400796 37.158093 -1.922545 0.548758 6.712555 -10.220823
Spine 3.836381 5.420941 12.683986
Head -1.402374 -7.500795 2.028243
LeftShoulder -6.762740 -4.684228 5.255351
LeftArm -8.220315 -15.625085 -51.584811
LeftForeArm 8.849845 -0.000000 111.266145
LeftHand -11.990960 -0.000000 24.105230
LeftHandThumb1 -26.253704 0.000000 33.147579
RightShoulder -3.603832 -17.953204 -1.840046
RightArm 23.006188 -7.915235 62.197152
RightForeArm 192.653293 -0.000000 28.654471
RightHand 3.118993 -0.000000 8.392310
RightHandThumb1 -24.326973 -0.000000 -32.862282
LeftUpLeg -8.072518 11.554260 4.691140
LeftLeg 20.569301 -0.000000 -0.000000
LeftFoot -23.610929 8.499481 -9.071054
LeftToeBase 11.072357 -0.000000 -0.000000
RightUpLeg -65.885702 -14.188492 6.335828
RightLeg 105.641839 -0.000000 -0.000000
RightFoot -3.567744 -1.498124 10.673910
RightToeBase 2.668250 -0.000000 -0.000000
279
root 5.402401 37.159026 -1.921569 0.441011 6.778724 -10.379325
Spine 3.947033 5.490440 12.911272
Head -1.404471 -7.465912 1.931254
LeftShoulder -6.772310 -4.661642 5.235942
LeftArm -8.038767 -15.535988 -51.606682
LeftForeArm 8.758715 -0.000000 111.317381
LeftHand -11.910606 0.000000 23.971028
LeftHandThumb1 -26.253704 0.000000 33.147579
RightShoulder -3.520135 -17.927332 -1.948190
RightArm 23.034624 -7.791547 62.160546
RightForeArm 192.634352 -0.000000 28.636850
RightHand 2.964815 0.000000 8.433797
RightHandThumb1 -24.326973 -0.000000 -32.862282
LeftUpLeg -8.107871 11.404195 4.861593
LeftLeg 20.816553 -0.000000 -0.000000
LeftFoot -23.686651 8.556965 -9.064536
LeftToeBase 10.995372 -0.000000 -0.000000
RightUpLeg -66.005384 -14.229885 6.653843
RightLeg 105.766031 -0.000000 -0.000000
RightFoot -3.459101 -1.347520 10.596120
RightToeBase 2.506487 -0.000000 -0.000000
280
root 5.403985 37.160074 -1.920443 0.303442 6.853132 -10.554549
Spine 4.098711 5.558373 13.165615
Head -1.373468 -7.367315 1.745274
LeftShoulder -6.776421 -4.679346 5.213098
LeftArm -7.864527 -15.406933 -51.614603
LeftForeArm 8.658601 -0.000000 111.374935
LeftHand -11.835857 -0.000000 23.922709
LeftHandThumb1 -26.253704 0.000000 33.147579
RightShoulder -3.430658 -17.871389 -2.054638
RightArm 23.010611 -7.603840 62.145628
RightForeArm 192.611722 -0.000000 28.652428
RightHand 2.944689 -0.000000 8.465750
RightHandThumb1 -24.326973 -0.000000 -32.862282
LeftUpLeg -8.134470 11.271759 5.048851
LeftLeg 21.098406 -0.000000 -0.000000
LeftFoot -23.771193 8.632224 -9.015294
LeftToeBase 10.902508 -0.000000 -0.000000
RightUpLeg -66.135504 -14.272889 7.004201
RightLeg 105.902189 -0.000000 -0.000000
RightFoot -3.348389 -1.155807 10.872134
RightToeBase 2.441092 -0.000000 -0.000000
